<svg version="1.1" xmlns="http://www.w3.org/2000/svg" x="0px" y="0px" width="600px" height="600px" viewbox="0 0 600 600" enable-background="new 0 0 600 600">
<switch>
	<g>
		<g>
			<path fill="#F84B0F" d="M47.992,299.696C47.992,160.686,160.683,48,299.69,48c139.019,0,251.696,112.686,251.696,251.696     c0,139.016-112.678,251.7-251.696,251.7C160.683,551.396,47.992,438.712,47.992,299.696z"/>
			<path fill="#FFFFFF" d="M207.659,220.17c0,15.042-12.198,27.221-27.246,27.221c-15.024,0-27.198-12.179-27.198-27.221     c0-15.03,12.174-27.221,27.198-27.221C195.461,192.949,207.659,205.14,207.659,220.17z"/>
			<rect x="335.76" y="261.608" fill="#FFFFFF" width="29.603" height="142.067"/>
			<rect x="143.376" y="261.608" fill="#FFFFFF" width="29.597" height="142.067"/>
			<rect x="113.777" y="261.608" fill="#FFFFFF" width="59.196" height="29.595"/>
			<g>
				<rect x="190.732" y="261.608" fill="#FFFFFF" width="29.597" height="142.067"/>
				<rect x="190.732" y="261.608" fill="#FFFFFF" width="53.277" height="29.595"/>
			</g>
			<rect x="418.635" y="267.525" fill="#FFFFFF" width="29.596" height="136.15"/>
			<path fill="#FFFFFF" d="M319.783,308.688c0-27.345-10.786-47.081-55.668-47.081h-3.736l-0.109,29.595h2.496     c17.903,0,25.223,4.345,25.223,20.904c0.018,16.178-7.676,20.534-24.829,20.534h-25.071v25.268l20.879-0.008l25.888,47.375     l33.458-0.013l-28.452-51.084C313.553,346.668,319.783,328.32,319.783,308.688z"/>
			<rect x="380.16" y="261.608" fill="#FFFFFF" width="106.553" height="29.595"/>
		</g>
	</g>
</switch>

	
	
	
	
	
	
	
	
	
	
	
	
	
	
	
	
	
	
	
	
	

</svg>