<?xml version="1.0" encoding="UTF-8"?>
<svg version="1.1" xmlns="http://www.w3.org/2000/svg" x="0px" y="0px" width="234.667px" height="113.333px" viewbox="0 0 234.667 113.333" enable-background="new 0 0 234.667 113.333">
<switch>
	<g>
		<rect x="106.409" y="51.829" fill="none" width="164.558" height="23.961"/>
		<text transform="matrix(1 0 0 1 106.4087 58.2725)"><tspan x="0" y="0" fill="#1A395F" font-family="'ArialMT'" font-size="9">Institut de Recherche </tspan><tspan x="0" y="10.8" fill="#1A395F" font-family="'ArialMT'" font-size="9">en Informatique de Toulouse</tspan></text>
		<g>
			<circle fill="#F84B0F" cx="52.45" cy="58.244" r="42.52"/>
			<path fill="#FFFFFF" d="M36.903,44.81c0,2.541-2.061,4.599-4.603,4.599c-2.538,0-4.595-2.058-4.595-4.599     c0-2.539,2.057-4.599,4.595-4.599C34.843,40.211,36.903,42.271,36.903,44.81z"/>
			<rect x="58.544" y="51.81" fill="#FFFFFF" width="5.001" height="24"/>
			<rect x="26.044" y="51.81" fill="#FFFFFF" width="5" height="24"/>
			<rect x="21.044" y="51.81" fill="#FFFFFF" width="10" height="5"/>
			<g>
				<rect x="34.044" y="51.81" fill="#FFFFFF" width="5" height="24"/>
				<rect x="34.044" y="51.81" fill="#FFFFFF" width="9" height="5"/>
			</g>
			<rect x="72.544" y="52.81" fill="#FFFFFF" width="5" height="23"/>
			<path fill="#FFFFFF" d="M55.845,59.763c0-4.619-1.822-7.953-9.404-7.953H45.81l-0.019,5h0.422c3.024,0,4.261,0.733,4.261,3.531     c0.003,2.732-1.297,3.469-4.194,3.469h-4.235v4.269l3.527-0.002l4.373,8.004l5.652-0.003l-4.807-8.629     C54.792,66.179,55.845,63.079,55.845,59.763z"/>
			<rect x="66.044" y="51.81" fill="#FFFFFF" width="18" height="5"/>
		</g>
	</g>
</switch>

	
	
	
	
	
	
	
	
	
	
	
	
	
	
	
	
	
	
	
	
	
	
	
	
	
	

</svg>